<svg xmlns="http://www.w3.org/2000/svg" width="128" height="128" viewBox="0 0 128 128" role="img" aria-label="Forge ADP logo">
  <defs>
    <radialGradient id="g" cx="50%" cy="45%" r="70%">
      <stop offset="0%" stop-color="#23945b"/>
      <stop offset="100%" stop-color="#1f8850"/>
    </radialGradient>
  </defs>
  <circle cx="64" cy="64" r="63.7" fill="url(#g)" stroke="#ffffff" stroke-width="0.35"/>
  <path d="M 48.67 126.06 L 48.67 126.19 L 48.86 126.19 L 48.92 126.31 L 49.74 126.38 L 49.80 126.50 L 50.55 126.56 L 50.61 126.69 L 51.43 126.75 L 51.49 126.88 L 52.43 126.94 L 52.43 126.81 L 52.05 126.81 L 51.80 126.69 L 51.11 126.62 L 50.86 126.50 L 50.24 126.44 L 50.05 126.31 Z M 82.77 125.12 L 82.64 125.12 L 82.58 125.25 L 82.02 125.31 L 81.96 125.44 L 81.33 125.50 L 81.27 125.62 L 80.95 125.62 L 80.39 125.75 L 80.27 125.88 L 79.95 125.88 L 79.89 126.00 L 79.64 126.00 L 79.64 126.12 L 79.77 126.12 L 79.83 126.00 L 80.45 125.94 L 80.58 125.81 L 81.20 125.75 L 81.27 125.62 L 81.83 125.56 L 81.89 125.44 L 82.52 125.38 L 82.58 125.25 L 82.77 125.25 Z M 90.90 122.06 L 90.53 122.12 L 90.46 122.25 L 90.09 122.31 L 89.65 122.50 L 89.59 122.62 L 89.21 122.69 L 88.34 123.06 L 88.27 123.19 L 88.09 123.19 L 87.90 123.31 L 87.40 123.44 L 87.15 123.56 L 87.15 123.69 L 87.84 123.50 L 87.90 123.38 L 88.27 123.31 L 88.34 123.19 L 88.77 123.12 L 88.84 123.00 L 89.21 122.94 L 89.27 122.81 L 89.59 122.75 L 89.65 122.62 L 90.03 122.56 L 90.15 122.44 L 90.46 122.38 L 90.53 122.25 L 90.90 122.19 Z M 37.16 122.00 L 37.16 122.19 L 37.47 122.25 L 37.54 122.38 L 37.85 122.44 L 37.91 122.56 L 38.29 122.62 L 38.35 122.75 L 38.66 122.81 L 38.79 122.94 L 39.16 123.00 L 39.23 123.12 L 39.60 123.19 L 39.66 123.31 L 40.16 123.44 L 40.35 123.56 L 40.54 123.56 L 40.60 123.69 L 40.98 123.75 L 40.98 123.56 L 39.98 123.19 L 39.85 123.06 L 39.66 123.06 L 37.91 122.31 L 37.66 122.12 Z M 94.91 120.00 L 94.72 120.00 L 94.53 120.19 L 94.34 120.19 L 93.72 120.56 L 93.47 120.62 L 93.15 120.81 L 93.09 120.94 L 92.65 121.12 L 92.65 121.25 L 92.78 121.25 L 92.84 121.12 L 93.15 121.06 L 93.22 120.94 L 93.53 120.88 L 93.59 120.75 L 93.90 120.69 L 93.97 120.56 L 94.59 120.31 L 94.65 120.19 L 94.91 120.12 Z M 32.78 119.81 L 32.84 120.00 L 33.16 120.06 L 33.66 120.50 L 33.97 120.56 L 34.03 120.69 L 34.35 120.75 L 34.41 120.88 L 34.72 120.94 L 34.78 121.06 L 35.10 121.12 L 35.16 121.25 L 35.47 121.31 L 35.53 121.44 L 35.97 121.50 L 35.97 121.38 L 35.47 121.19 L 34.60 120.62 L 34.35 120.56 L 33.53 120.06 L 32.97 119.94 L 32.97 119.81 Z M 104.04 113.88 L 103.91 113.88 L 103.41 114.25 L 103.23 114.50 L 102.66 114.81 L 102.41 115.06 L 102.41 115.19 L 102.60 115.19 L 102.91 114.88 L 103.10 114.81 L 103.29 114.56 L 103.48 114.50 L 103.73 114.25 L 103.85 114.25 L 104.04 114.06 Z M 23.77 113.75 L 23.84 113.94 L 24.15 114.25 L 24.27 114.25 L 24.40 114.44 L 24.96 114.88 L 25.15 114.94 L 25.34 115.19 L 25.71 115.31 L 25.65 115.06 L 25.40 114.81 L 24.15 113.88 Z M 108.54 110.00 L 108.23 110.06 L 107.61 110.75 L 107.35 110.88 L 106.67 111.56 L 106.48 111.88 L 106.35 111.88 L 106.35 112.00 L 106.48 112.00 L 106.54 111.81 L 106.92 111.62 L 107.73 110.75 L 108.17 110.50 L 108.54 110.12 Z M 19.46 109.94 L 19.52 110.19 L 20.02 110.69 L 20.14 110.69 L 21.02 111.62 L 21.33 111.75 L 21.71 112.19 L 21.83 112.19 L 21.83 112.00 L 20.90 111.06 L 20.33 110.62 L 19.64 109.94 Z M 15.89 106.19 L 15.95 106.44 L 16.27 106.69 L 16.33 106.94 L 17.27 107.81 L 17.27 107.94 L 17.77 108.44 L 17.96 108.50 L 17.89 108.19 L 16.27 106.56 L 16.20 106.38 L 16.02 106.19 Z M 12.76 102.44 L 12.76 102.62 L 13.08 102.88 L 13.14 103.06 L 13.70 103.69 L 13.70 103.81 L 14.01 104.12 L 14.20 104.19 L 14.08 103.88 L 12.95 102.44 Z M 50.86 95.25 L 50.30 95.25 L 49.42 95.56 L 48.61 96.31 L 48.48 96.56 L 48.23 96.56 L 48.23 95.56 L 48.17 95.44 L 46.67 95.44 L 46.61 95.62 L 46.67 102.88 L 46.80 102.94 L 48.23 102.94 L 48.23 99.19 L 48.42 98.38 L 48.80 97.75 L 49.36 97.31 L 50.30 96.94 L 50.86 96.88 Z M 65.44 95.25 L 65.25 95.38 L 65.00 95.38 L 63.87 96.00 L 63.31 96.56 L 62.94 97.12 L 62.50 98.19 L 62.44 98.69 L 62.50 100.19 L 62.94 101.25 L 63.44 101.94 L 64.56 102.75 L 65.69 103.12 L 67.07 103.12 L 67.82 102.94 L 68.57 102.56 L 69.07 102.19 L 69.38 101.81 L 69.32 101.56 L 68.69 101.06 L 68.44 101.00 L 68.00 101.38 L 67.25 101.75 L 66.88 101.81 L 65.88 101.75 L 65.06 101.38 L 64.50 100.81 L 64.19 100.25 L 64.13 99.94 L 64.25 99.81 L 70.01 99.75 L 70.01 98.69 L 69.88 98.00 L 69.69 97.62 L 69.69 97.44 L 69.32 96.75 L 68.38 95.81 L 67.69 95.44 L 67.32 95.38 L 67.13 95.25 L 66.69 95.19 Z M 64.13 98.25 L 64.25 97.81 L 64.44 97.50 L 65.00 96.94 L 65.88 96.56 L 66.69 96.56 L 67.25 96.75 L 68.00 97.38 L 68.38 98.19 L 68.32 98.62 L 68.00 98.69 L 64.38 98.69 L 64.13 98.56 Z M 60.06 95.44 L 58.56 95.44 L 58.49 96.31 L 58.37 96.31 L 57.74 95.75 L 57.18 95.44 L 56.05 95.19 L 55.18 95.25 L 54.55 95.44 L 53.87 95.81 L 53.05 96.56 L 52.80 96.94 L 52.43 97.81 L 52.30 98.50 L 52.30 99.44 L 52.36 99.94 L 52.74 100.88 L 53.11 101.44 L 53.49 101.81 L 54.24 102.31 L 54.74 102.50 L 55.37 102.62 L 56.18 102.62 L 56.62 102.56 L 57.12 102.38 L 57.81 101.94 L 58.37 101.38 L 58.56 101.44 L 58.56 102.31 L 58.37 103.12 L 57.74 103.88 L 56.93 104.25 L 56.43 104.31 L 55.12 104.25 L 54.43 104.00 L 53.74 103.50 L 53.61 103.50 L 53.36 103.69 L 52.80 104.38 L 52.86 104.62 L 53.18 104.88 L 54.05 105.38 L 54.80 105.62 L 55.68 105.75 L 56.74 105.75 L 57.68 105.56 L 58.18 105.38 L 59.12 104.75 L 59.56 104.25 L 59.87 103.75 L 60.12 102.62 Z M 55.80 96.62 L 56.93 96.69 L 57.62 97.06 L 57.99 97.38 L 58.31 97.81 L 58.56 98.50 L 58.56 99.38 L 58.18 100.19 L 57.56 100.81 L 57.18 101.06 L 56.62 101.25 L 55.49 101.19 L 54.80 100.81 L 54.30 100.31 L 54.12 100.00 L 53.93 99.38 L 53.93 98.44 L 54.05 98.00 L 54.30 97.56 L 54.99 96.94 Z M 39.41 95.25 L 38.41 95.62 L 37.47 96.31 L 37.04 96.81 L 36.54 97.75 L 36.35 98.50 L 36.35 99.75 L 36.54 100.50 L 36.91 101.31 L 37.47 102.00 L 37.85 102.31 L 38.98 102.94 L 39.48 103.00 L 39.73 103.12 L 40.98 103.12 L 41.73 102.94 L 42.79 102.38 L 43.67 101.50 L 44.04 100.88 L 44.29 100.12 L 44.36 99.75 L 44.29 98.19 L 44.04 97.50 L 43.73 96.94 L 43.29 96.38 L 42.60 95.81 L 42.17 95.56 L 41.23 95.25 L 40.79 95.19 Z M 40.04 96.62 L 40.66 96.62 L 41.23 96.75 L 41.73 97.06 L 42.35 97.69 L 42.73 98.56 L 42.73 99.75 L 42.48 100.44 L 41.85 101.19 L 41.29 101.56 L 40.60 101.75 L 40.10 101.75 L 39.60 101.62 L 38.91 101.25 L 38.41 100.75 L 38.41 100.62 L 38.10 100.12 L 37.97 99.56 L 38.04 98.38 L 38.41 97.62 L 39.16 96.94 L 39.54 96.75 Z M 103.23 93.69 L 102.04 93.31 L 97.28 93.31 L 97.35 102.94 L 98.91 102.94 L 98.97 99.94 L 99.10 99.88 L 101.79 99.88 L 102.48 99.75 L 103.66 99.19 L 104.29 98.56 L 104.54 98.19 L 104.73 97.75 L 104.85 97.12 L 104.85 96.06 L 104.73 95.44 L 104.54 95.00 L 104.16 94.44 Z M 98.97 94.81 L 101.66 94.81 L 101.97 94.88 L 102.54 95.19 L 102.98 95.69 L 103.16 96.06 L 103.23 96.44 L 103.16 97.12 L 102.85 97.69 L 102.22 98.19 L 101.66 98.38 L 98.91 98.31 Z M 86.58 93.31 L 86.58 102.88 L 90.78 102.88 L 91.15 102.75 L 91.53 102.75 L 91.71 102.62 L 92.09 102.56 L 92.53 102.38 L 93.40 101.81 L 94.22 101.00 L 94.78 100.00 L 94.78 99.81 L 94.91 99.69 L 95.16 98.50 L 95.16 97.62 L 94.97 96.62 L 94.59 95.75 L 94.22 95.19 L 93.78 94.69 L 93.03 94.06 L 92.34 93.69 L 91.09 93.31 Z M 88.34 94.81 L 90.53 94.81 L 91.34 95.00 L 92.40 95.62 L 92.97 96.31 L 93.40 97.38 L 93.40 98.75 L 93.22 99.44 L 92.84 100.12 L 92.28 100.69 L 91.84 101.00 L 91.59 101.06 L 91.46 101.19 L 90.71 101.38 L 90.03 101.44 L 88.90 101.44 L 88.34 101.38 L 88.21 101.25 L 88.21 94.94 Z M 34.78 93.31 L 27.46 93.31 L 27.46 102.88 L 27.71 102.94 L 29.03 102.94 L 29.09 102.81 L 29.09 99.12 L 29.22 99.00 L 32.78 98.94 L 33.66 99.00 L 34.35 98.94 L 34.41 98.75 L 34.41 97.56 L 34.16 97.50 L 29.22 97.50 L 29.09 97.38 L 29.09 94.94 L 29.22 94.81 L 34.85 94.75 L 34.85 93.50 Z M 79.26 93.31 L 78.70 94.69 L 78.58 94.81 L 78.08 96.19 L 77.95 96.31 L 77.39 97.62 L 77.39 97.81 L 77.26 97.94 L 77.01 98.69 L 76.45 99.88 L 76.39 100.19 L 76.26 100.31 L 76.26 100.50 L 76.07 100.75 L 75.70 101.62 L 75.70 101.81 L 75.32 102.56 L 75.26 102.94 L 76.95 102.88 L 77.76 100.88 L 82.39 100.81 L 82.64 101.19 L 82.71 101.50 L 82.83 101.62 L 82.89 101.94 L 83.02 102.06 L 83.08 102.38 L 83.21 102.50 L 83.33 102.88 L 85.02 102.94 L 84.96 102.50 L 80.89 93.31 L 79.39 93.25 Z M 80.02 95.38 L 80.20 95.44 L 80.77 96.88 L 81.14 97.56 L 81.20 97.88 L 81.33 98.00 L 81.77 99.06 L 81.70 99.31 L 78.51 99.25 L 78.51 98.94 L 78.76 98.25 L 79.14 97.50 L 79.14 97.31 L 79.26 97.19 L 79.89 95.50 Z M 6.44 92.06 L 6.51 92.44 L 6.63 92.50 L 6.69 92.81 L 6.82 92.88 L 6.88 93.19 L 7.01 93.25 L 7.26 93.94 L 7.38 94.00 L 7.38 94.12 L 7.63 94.44 L 7.63 94.56 L 7.76 94.62 L 7.76 94.75 L 7.88 94.75 L 7.51 93.88 L 7.13 93.19 L 7.01 93.12 L 6.94 92.81 L 6.82 92.75 L 6.82 92.62 L 6.69 92.50 L 6.57 92.06 Z M 74.13 59.94 L 71.76 62.44 L 70.19 64.25 L 68.63 65.88 L 68.69 66.19 L 69.82 67.31 L 73.26 71.12 L 73.45 71.25 L 74.95 72.94 L 78.89 77.06 L 81.20 79.62 L 82.46 80.88 L 82.96 81.50 L 86.02 84.69 L 86.27 84.88 L 86.90 85.12 L 87.84 85.06 L 88.34 84.88 L 89.84 83.81 L 91.53 82.19 L 92.47 81.12 L 92.84 80.50 L 93.09 79.62 L 93.03 78.81 L 92.84 78.38 L 92.47 77.88 L 74.45 60.00 Z M 54.99 41.44 L 50.80 45.50 L 50.74 45.75 L 53.43 48.50 L 54.05 49.25 L 56.62 51.88 L 57.31 52.69 L 57.62 52.94 L 57.81 53.25 L 58.37 53.75 L 59.62 55.19 L 59.87 55.19 L 64.25 50.94 L 64.25 50.75 L 59.12 45.44 L 58.43 44.81 L 57.06 43.31 L 55.18 41.44 Z M 4.32 40.94 L 4.19 40.94 L 4.07 41.12 L 4.00 41.50 L 3.82 41.81 L 3.82 42.00 L 3.69 42.06 L 3.63 42.56 L 3.50 42.62 L 3.44 43.06 L 3.25 43.38 L 3.25 43.62 L 3.13 43.69 L 3.07 44.25 L 2.94 44.31 L 2.88 44.81 L 2.75 44.88 L 2.69 45.38 L 2.57 45.44 L 2.57 45.62 L 2.69 45.62 L 2.69 45.38 L 2.82 45.31 L 2.88 44.81 L 3.00 44.75 L 3.07 44.19 L 3.19 44.12 L 3.25 43.62 L 3.38 43.56 L 3.50 43.25 L 3.63 42.62 L 3.75 42.56 L 3.75 42.38 L 3.94 42.06 L 3.94 41.88 L 4.13 41.56 L 4.13 41.38 Z M 7.82 33.38 L 7.63 33.38 L 7.63 33.50 L 7.44 33.69 L 7.38 33.94 L 7.01 34.56 L 7.01 34.69 L 6.88 34.75 L 6.82 35.06 L 6.69 35.12 L 6.63 35.44 L 6.51 35.50 L 6.44 35.81 L 6.32 35.88 L 6.26 36.19 L 6.07 36.44 L 6.07 36.56 L 5.94 36.62 L 5.88 37.12 L 6.01 37.12 L 6.07 36.88 L 6.19 36.75 L 7.57 33.88 L 7.82 33.50 Z M 98.10 33.06 L 97.91 32.88 L 97.78 32.88 L 97.22 33.31 L 94.53 36.06 L 91.53 38.94 L 90.71 39.31 L 90.09 39.38 L 89.27 39.31 L 88.21 38.94 L 87.59 38.50 L 78.14 29.00 L 77.95 29.00 L 77.58 29.38 L 76.83 30.44 L 75.70 32.56 L 75.51 33.25 L 75.32 33.62 L 74.95 34.94 L 74.95 35.19 L 74.76 35.62 L 74.70 36.19 L 74.57 36.44 L 74.57 36.69 L 74.20 37.94 L 74.20 38.25 L 74.01 38.69 L 74.01 39.00 L 73.63 40.19 L 73.63 40.44 L 73.45 40.88 L 73.38 41.31 L 73.26 41.50 L 73.26 41.69 L 73.07 42.06 L 72.82 43.00 L 72.70 43.12 L 72.45 44.00 L 72.13 44.56 L 72.13 44.75 L 70.94 46.88 L 70.26 47.81 L 67.32 50.81 L 66.31 51.69 L 64.88 53.19 L 60.50 57.38 L 58.68 59.25 L 57.62 60.19 L 52.93 64.88 L 51.61 66.06 L 46.98 70.69 L 45.54 72.00 L 41.23 76.38 L 40.66 77.25 L 40.29 78.19 L 40.10 79.06 L 40.10 80.31 L 40.29 81.19 L 40.48 81.75 L 40.60 81.88 L 40.66 82.19 L 41.42 83.31 L 42.04 83.94 L 42.85 84.50 L 44.17 85.06 L 44.92 85.19 L 46.23 85.19 L 47.05 85.06 L 47.67 84.88 L 49.11 84.06 L 50.74 82.44 L 51.80 81.19 L 51.99 81.06 L 54.49 78.25 L 56.12 76.56 L 57.68 74.75 L 57.99 74.50 L 59.75 72.50 L 60.06 72.25 L 61.62 70.44 L 61.94 70.19 L 63.69 68.19 L 64.00 67.94 L 65.13 66.62 L 66.13 65.62 L 66.50 65.12 L 67.63 64.00 L 69.19 62.19 L 70.07 61.31 L 71.95 59.19 L 72.13 59.06 L 73.63 57.31 L 73.82 57.19 L 76.07 54.69 L 77.76 53.06 L 78.51 52.50 L 80.70 51.19 L 80.83 51.19 L 80.95 51.06 L 81.70 50.81 L 82.02 50.62 L 82.21 50.62 L 82.96 50.31 L 83.89 50.06 L 84.08 49.94 L 84.58 49.88 L 85.02 49.69 L 85.33 49.69 L 85.90 49.50 L 86.27 49.50 L 86.90 49.31 L 87.59 49.25 L 87.90 49.12 L 88.27 49.12 L 89.46 48.88 L 89.71 48.75 L 90.03 48.75 L 90.84 48.44 L 91.21 48.38 L 93.03 47.56 L 94.03 46.94 L 94.91 46.25 L 96.28 44.75 L 97.35 43.19 L 98.10 41.56 L 98.16 41.19 L 98.28 41.00 L 98.53 40.19 L 98.85 38.44 L 98.91 36.94 L 98.66 34.81 L 98.53 34.25 L 98.35 33.88 L 98.35 33.62 Z M 44.86 76.75 L 46.11 76.69 L 46.61 76.81 L 47.48 77.31 L 47.98 77.81 L 48.36 78.38 L 48.55 78.88 L 48.61 79.94 L 48.36 80.94 L 48.05 81.44 L 47.42 82.06 L 46.36 82.56 L 45.86 82.62 L 44.98 82.56 L 44.11 82.19 L 43.42 81.56 L 42.98 80.94 L 42.73 80.31 L 42.73 79.00 L 42.98 78.31 L 43.35 77.75 L 43.79 77.31 L 44.23 77.00 Z M 80.64 36.69 L 80.95 36.69 L 81.33 36.88 L 82.14 37.62 L 86.46 42.06 L 86.77 42.69 L 86.77 43.06 L 86.65 43.25 L 82.89 47.12 L 82.46 47.50 L 82.14 47.62 L 81.77 47.62 L 81.33 47.38 L 76.70 42.75 L 76.26 42.25 L 75.95 41.69 L 75.95 41.38 L 76.14 41.00 L 78.89 38.19 L 80.27 36.88 Z M 84.65 42.12 L 84.08 42.12 L 83.89 42.25 L 81.52 44.69 L 81.33 44.94 L 81.33 45.50 L 81.77 45.88 L 82.02 45.88 L 82.27 45.75 L 84.90 43.00 L 84.96 42.50 Z M 83.02 40.38 L 82.83 40.25 L 82.33 40.25 L 80.95 41.56 L 79.64 43.00 L 79.52 43.56 L 79.89 44.06 L 80.52 44.00 L 82.89 41.50 L 83.21 41.06 L 83.21 40.69 Z M 81.14 38.50 L 80.52 38.50 L 77.89 41.19 L 77.76 41.38 L 77.76 41.94 L 78.20 42.31 L 78.45 42.31 L 78.76 42.12 L 81.33 39.50 L 81.39 39.38 L 81.39 38.81 Z M 66.31 28.81 L 65.81 28.44 L 65.19 28.19 L 64.94 28.00 L 64.06 27.62 L 63.87 27.62 L 63.12 27.25 L 62.94 27.25 L 61.43 26.69 L 61.18 26.69 L 60.81 26.50 L 59.50 26.25 L 59.25 26.12 L 58.87 26.12 L 58.12 25.94 L 56.93 25.81 L 54.24 25.81 L 52.93 25.94 L 51.05 26.31 L 50.61 26.50 L 50.36 26.50 L 48.36 27.25 L 48.23 27.38 L 47.42 27.69 L 45.92 28.56 L 44.36 29.69 L 41.23 32.38 L 40.60 33.06 L 39.91 33.62 L 38.04 35.50 L 37.85 36.06 L 37.85 37.50 L 37.79 37.81 L 37.35 38.81 L 37.04 39.25 L 36.41 39.88 L 35.72 40.38 L 35.41 40.44 L 35.10 40.62 L 33.72 40.69 L 32.91 40.56 L 32.59 40.75 L 29.53 43.62 L 29.28 44.12 L 29.34 44.88 L 29.53 45.19 L 34.97 50.81 L 35.35 51.00 L 36.04 51.00 L 36.66 50.62 L 39.54 47.88 L 39.66 47.62 L 39.73 45.81 L 40.16 44.81 L 40.54 44.31 L 41.54 43.44 L 41.67 43.44 L 42.10 43.12 L 42.42 43.06 L 42.54 42.94 L 43.23 42.75 L 43.86 42.69 L 45.04 42.75 L 45.23 42.88 L 45.67 42.94 L 45.79 43.06 L 46.11 43.12 L 46.61 43.38 L 47.86 44.31 L 48.48 44.94 L 48.67 44.94 L 54.37 39.31 L 54.24 38.94 L 53.55 38.19 L 52.74 37.12 L 52.05 36.00 L 51.61 34.88 L 51.55 34.44 L 51.61 33.44 L 51.93 32.69 L 52.24 32.25 L 53.24 31.38 L 54.05 30.88 L 55.74 30.12 L 56.12 30.06 L 56.56 29.88 L 56.81 29.88 L 56.99 29.75 L 58.24 29.50 L 58.62 29.50 L 59.00 29.38 L 60.12 29.31 L 62.62 29.38 L 64.75 29.75 L 64.94 29.88 L 65.63 29.94 L 66.06 29.56 L 66.31 29.12 Z M 91.40 26.06 L 90.90 25.81 L 89.96 25.50 L 88.65 25.19 L 87.34 25.06 L 86.08 25.06 L 84.77 25.19 L 83.14 25.56 L 81.70 26.12 L 80.83 26.56 L 79.89 27.19 L 79.45 27.56 L 79.45 27.75 L 84.58 32.94 L 84.96 33.00 L 87.46 30.38 L 91.34 26.50 L 91.46 26.31 Z M 113.92 23.94 L 113.92 24.06 L 114.92 25.38 L 115.17 25.62 L 115.36 25.69 L 115.30 25.50 L 115.17 25.44 L 115.11 25.25 L 114.05 23.94 Z M 14.08 23.94 L 13.83 24.00 L 13.70 24.12 L 13.70 24.25 L 13.08 24.94 L 13.01 25.12 L 12.76 25.31 L 12.70 25.62 L 12.89 25.62 L 13.14 25.38 L 14.08 24.12 Z M 18.02 19.44 L 17.77 19.50 L 17.27 20.00 L 17.27 20.12 L 16.33 21.00 L 16.20 21.31 L 15.77 21.69 L 15.77 21.81 L 16.02 21.81 L 16.58 21.25 L 17.77 19.88 L 17.96 19.75 Z M 108.67 18.12 L 108.67 18.25 L 108.86 18.31 L 108.86 18.44 L 109.42 19.00 L 109.79 19.25 L 109.79 19.38 L 111.05 20.62 L 111.17 20.88 L 111.61 21.31 L 111.80 21.38 L 111.86 21.62 L 112.05 21.81 L 112.17 21.81 L 112.11 21.56 L 111.73 21.31 L 111.73 21.12 L 110.73 20.19 L 110.42 19.69 L 110.04 19.31 L 109.73 19.19 L 109.67 18.94 L 109.11 18.38 L 108.79 18.25 L 108.79 18.12 Z M 104.10 14.06 L 104.16 14.31 L 104.48 14.50 L 105.60 15.50 L 105.79 15.56 L 106.04 15.88 L 106.17 15.88 L 106.10 15.56 L 105.79 15.44 L 105.42 15.00 L 105.23 14.94 L 104.98 14.62 L 104.54 14.38 L 104.29 14.06 Z M 23.90 14.06 L 23.65 14.06 L 22.83 14.88 L 22.52 15.00 L 21.33 16.19 L 21.02 16.31 L 20.14 17.25 L 20.02 17.25 L 19.52 17.75 L 19.46 17.94 L 19.83 17.88 L 20.27 17.38 L 20.65 17.12 L 21.96 15.88 L 22.77 15.25 L 23.27 14.75 L 23.90 14.31 Z M 98.85 10.25 L 98.91 10.44 L 100.35 11.38 L 102.16 12.75 L 102.41 12.81 L 102.35 12.56 L 102.16 12.50 L 101.60 12.00 L 101.41 11.94 L 101.22 11.75 L 101.10 11.75 L 100.97 11.56 L 100.85 11.56 L 100.29 11.06 L 100.16 11.06 L 99.97 10.88 L 99.47 10.62 L 99.16 10.31 Z M 95.47 8.19 L 95.47 8.31 L 95.59 8.31 L 95.66 8.44 L 96.09 8.62 L 96.28 8.81 L 97.91 9.75 L 98.41 10.12 L 98.60 10.12 L 98.53 9.94 L 98.35 9.88 L 98.16 9.69 L 98.03 9.69 L 97.85 9.50 L 97.72 9.50 L 97.66 9.38 L 97.53 9.38 L 97.35 9.19 L 97.09 9.12 L 96.91 8.94 L 96.78 8.94 L 96.72 8.81 L 95.66 8.31 L 95.59 8.19 Z M 33.35 7.75 L 32.66 8.00 L 32.47 8.19 L 32.34 8.19 L 31.47 8.75 L 31.34 8.75 L 31.16 8.94 L 31.03 8.94 L 30.34 9.44 L 29.72 9.75 L 29.47 10.00 L 29.34 10.00 L 29.28 10.25 L 28.97 10.25 L 28.65 10.50 L 28.53 10.50 L 28.03 10.94 L 27.71 11.06 L 27.28 11.38 L 27.21 11.50 L 26.65 11.81 L 26.59 11.94 L 26.40 12.00 L 26.21 12.19 L 26.09 12.19 L 25.90 12.44 L 25.59 12.62 L 25.52 12.81 L 25.21 12.88 L 25.15 13.12 L 25.34 13.06 L 25.46 12.88 L 25.90 12.75 L 27.65 11.44 L 29.15 10.50 L 29.34 10.19 L 29.72 10.12 L 30.72 9.44 L 33.16 8.06 L 33.35 7.88 Z M 45.11 2.75 L 44.92 2.75 L 44.86 2.88 L 44.29 2.94 L 44.17 3.06 L 43.73 3.12 L 43.61 3.25 L 42.60 3.50 L 42.54 3.62 L 42.10 3.69 L 42.04 3.81 L 41.79 3.81 L 41.48 4.00 L 41.10 4.06 L 40.98 4.19 L 40.98 4.31 L 41.67 4.12 L 42.98 3.56 L 43.35 3.50 L 43.48 3.38 L 44.79 3.00 L 44.86 2.88 L 45.11 2.88 Z M 48.67 1.75 L 48.17 1.81 L 48.11 1.94 L 47.42 2.00 L 47.36 2.12 L 46.80 2.19 L 46.73 2.31 L 46.11 2.38 L 46.04 2.50 L 45.54 2.56 L 45.54 2.69 L 46.04 2.62 L 46.48 2.44 L 46.73 2.44 L 46.80 2.31 L 48.67 1.88 Z" fill="#ffffff" fill-rule="evenodd"/>
</svg>